<?xml version="1.0" encoding="UTF-8"?>
<svg width="300px" height="298px" viewBox="0 0 300 298" version="1.1" xmlns="http://www.w3.org/2000/svg" xmlns:xlink="http://www.w3.org/1999/xlink">
    <!-- Generator: Sketch 55 (78076) - https://sketchapp.com -->
    <title>logo logo</title>
    <desc>Created with Sketch.</desc>
    <g id="logo-logo" stroke="none" stroke-width="1" fill="none" fill-rule="evenodd">
        <polygon id="Star" fill="#5AC5F4" transform="translate(149.784737, 148.755610) rotate(-38.000000) translate(-149.784737, -148.755610) " points="149.429574 226.873952 82.1090546 252.51122 85.3077828 180.07289 41 124.550123 109.739263 104.00227 150.058537 45 187.545272 101.092259 258.569474 123.796417 212.112117 179.633614 216.574385 252.045404"></polygon>
        <polygon id="Star" fill="#5AC5F4" points="153.561274 227.633303 86.5045866 253.126113 89.4451244 180.445822 45.0612744 124.575044 113.550563 104.194361 153.561274 45.1261134 191.143812 101.544661 262.061274 124.575044 215.917556 180.445822 220.617962 253.126113"></polygon>
        <ellipse id="Oval" fill="#FFFFFF" cx="154.061274" cy="159.626113" rx="88" ry="88.5"></ellipse>
        <ellipse id="Oval" fill="#5A7FF4" cx="153.061274" cy="159.626113" rx="57" ry="58.5"></ellipse>
        <path d="M180.970365,208.126113 C209.08668,208.126113 210.061274,186.635781 210.061274,160.126113 C210.061274,133.616445 209.08668,112.126113 180.970365,112.126113 C152.854051,112.126113 130.061274,133.616445 130.061274,160.126113 C130.061274,186.635781 152.854051,208.126113 180.970365,208.126113 Z" id="Oval" fill="#FFFFFF"></path>
        <ellipse id="Oval" stroke="#5A7FF4" stroke-width="6" cx="153.061274" cy="159.626113" rx="57" ry="58.5"></ellipse>
    </g>
</svg>